<svg xmlns="http://www.w3.org/2000/svg" viewBox="0 0 960 420"><defs><linearGradient id="g" x2="1" y2="1"><stop stop-color="#061a2c"/><stop offset=".5" stop-color="#0d527f"/><stop offset="1" stop-color="#101823"/></linearGradient><linearGradient id="s" x2="1" y2="1"><stop stop-color="#2db9ff"/><stop offset="1" stop-color="#4269ff"/></linearGradient></defs><rect width="960" height="420" fill="url(#g)"/><rect x="64" y="48" width="690" height="292" rx="18" fill="#070b12" stroke="#527da5" stroke-width="4"/><rect x="90" y="74" width="638" height="240" rx="11" fill="#123456"/><g fill="url(#s)"><rect x="112" y="96" width="183" height="96" rx="8"/><rect x="310" y="96" width="183" height="96" rx="8"/><rect x="508" y="96" width="197" height="96" rx="8"/><rect x="112" y="205" width="183" height="88" rx="8"/><rect x="310" y="205" width="183" height="88" rx="8"/><rect x="508" y="205" width="197" height="88" rx="8"/></g><g fill="#fff" opacity=".8"><rect x="129" y="113" width="62" height="6" rx="3"/><rect x="327" y="113" width="62" height="6" rx="3"/><rect x="525" y="113" width="72" height="6" rx="3"/><rect x="129" y="222" width="58" height="5" rx="2"/><rect x="327" y="222" width="58" height="5" rx="2"/><rect x="525" y="222" width="68" height="5" rx="2"/></g><circle cx="850" cy="205" r="50" fill="#15283d" stroke="#58a4ff" stroke-width="3"/><circle cx="850" cy="205" r="17" fill="#41c2ff"/><path d="M850 135a70 70 0 0 1 0 140M850 110a95 95 0 0 1 0 190" fill="none" stroke="#7bd5ff" stroke-width="7" opacity=".2"/></svg>