<svg xmlns="http://www.w3.org/2000/svg" viewBox="0 0 960 420"><defs><linearGradient id="g" x2="1" y2="1"><stop stop-color="#061a33"/><stop offset=".6" stop-color="#20538a"/><stop offset="1" stop-color="#0a223f"/></linearGradient><radialGradient id="gl"><stop stop-color="#4aa7ff" stop-opacity=".5"/><stop offset="1" stop-color="#4aa7ff" stop-opacity="0"/></radialGradient></defs><rect width="960" height="420" fill="url(#g)"/><rect width="960" height="420" fill="url(#gl)"/><rect x="78" y="68" width="530" height="260" rx="20" fill="#0a1422" stroke="#4f78a2" stroke-width="4"/><rect x="105" y="95" width="476" height="206" rx="12" fill="#102a45"/><circle cx="343" cy="161" r="53" fill="#d7a17b"/><path d="M287 156c9-53 99-65 122-3-11-9-25-14-38-10-29 8-46 23-84 13z" fill="#392c2d"/><path d="M274 238c40-41 99-42 140 0v47H274z" fill="#1c6dad"/><path d="M264 151h30v76h-30M412 151h30v76h-30" fill="none" stroke="#8ac7ff" stroke-width="9"/><path d="M431 173c35 1 48 14 48 38v16h-31" fill="none" stroke="#8ac7ff" stroke-width="8"/><circle cx="466" cy="213" r="7" fill="#40d6ff"/><rect x="645" y="82" width="235" height="84" rx="20" fill="#f7fbff"/><path d="M667 166l22 21 13-21" fill="#f7fbff"/><rect x="677" y="108" width="142" height="7" rx="3.5" fill="#3778ef"/><rect x="677" y="125" width="111" height="7" rx="3.5" fill="#a8b7ca"/><rect x="600" y="197" width="220" height="84" rx="20" fill="#173a5f"/><path d="M751 281l22 18 10-18" fill="#173a5f"/><rect x="632" y="222" width="135" height="7" rx="3.5" fill="#78bcff"/><rect x="632" y="239" width="101" height="7" rx="3.5" fill="#5e82a3"/></svg>